<?xml version="1.0" encoding="iso-8859-1"?>
<!-- Generator: Adobe Illustrator 17.0.0, SVG Export Plug-In . SVG Version: 6.00 Build 0)  -->
<!DOCTYPE svg PUBLIC "-//W3C//DTD SVG 1.1//EN" "http://www.w3.org/Graphics/SVG/1.1/DTD/svg11.dtd">
<svg version="1.1" id="Capa_1" xmlns="http://www.w3.org/2000/svg" xmlns:xlink="http://www.w3.org/1999/xlink" x="0px" y="0px"
	 width="64px" height="64px" viewBox="0 0 64 64" style="enable-background:new 0 0 64 64;" xml:space="preserve">
<g>
	<polygon points="31.51,16.027 27.197,14.16 27.197,18.307 31.51,20.025 	"/>
	<polygon points="31.51,26.037 35.818,27.757 35.818,23.759 31.51,21.892 	"/>
	<polygon points="34.491,29.525 30.181,27.657 30.181,31.804 34.491,33.523 	"/>
	<polygon points="27.197,39.699 31.51,41.419 31.51,37.421 27.197,35.554 	"/>
	<polygon points="30.348,49.846 34.656,51.564 34.656,47.566 30.348,45.699 	"/>
	<path d="M44.649,24.038l-6.842,4.483v31.627h6.842V26.855l4.711,1.979v31.313h1.989V29.673v-1.231v-1.124L44.649,24.038z
		 M40.836,54.313l-2.469,1.347v-3.478l2.469-1.4V54.313z M40.836,48.973l-2.469,1.345v-3.476l2.469-1.4V48.973z M40.836,43.633
		l-2.469,1.346v-3.478l2.469-1.401V43.633z M40.836,38.292l-2.469,1.345V36.16l2.469-1.401V38.292z M40.836,32.95l-2.469,1.347
		v-3.479l2.469-1.4V32.95z M43.695,52.858l-2.467,1.347v-3.478l2.467-1.4V52.858z M43.695,47.519l-2.467,1.345v-3.477l2.467-1.401
		V47.519z M43.695,42.177l-2.467,1.347v-3.479l2.467-1.4V42.177z M43.695,36.836l-2.467,1.347v-3.478l2.467-1.4V36.836z
		 M43.695,31.495l-2.467,1.347v-3.479l2.467-1.401V31.495z"/>
	<path d="M24.647,7.445V3.852h-1.99V8.75l-6.733,4.416v46.753h10.114V10.701l9.905,4.164v-3.481l-9.905-4.849L24.647,7.445z
		 M20.397,51.295l-3.646,1.989v-5.141l3.646-2.071V51.295z M20.397,43.398l-3.646,1.99v-5.142l3.646-2.07V43.398z M20.397,35.503
		l-3.646,1.989v-5.141l3.646-2.071V35.503z M20.397,27.607l-3.646,1.989v-5.141l3.646-2.071V27.607z M20.397,19.712l-3.646,1.989
		V16.56l3.646-2.07V19.712z M24.628,49.144l-3.646,1.99v-5.142l3.646-2.07V49.144z M24.628,41.248l-3.646,1.989v-5.141l3.646-2.071
		V41.248z M24.628,33.353l-3.646,1.989v-5.141l3.646-2.071V33.353z M24.628,25.457l-3.646,1.989v-5.142l3.646-2.07V25.457z
		 M24.628,17.56l-3.646,1.989v-5.141l3.646-2.071V17.56z"/>
</g>
</svg>
