<?xml version="1.0" encoding="utf-8"?>
<!-- Generator: Adobe Illustrator 15.1.0, SVG Export Plug-In . SVG Version: 6.00 Build 0)  -->
<!DOCTYPE svg PUBLIC "-//W3C//DTD SVG 1.1//EN" "http://www.w3.org/Graphics/SVG/1.1/DTD/svg11.dtd">
<svg version="1.1" id="Layer_1" xmlns="http://www.w3.org/2000/svg" xmlns:xlink="http://www.w3.org/1999/xlink" x="0px" y="0px"
	 width="612px" height="792px" viewBox="0 0 612 792" enable-background="new 0 0 612 792" xml:space="preserve">
<polygon fill="#010101" points="372,249.1 415.2,286.6 331.3,364.8 384.2,385 203.3,528.7 321.5,397.4 270.1,379.8 "/>
<path fill="#010101" d="M360.2,452.2v117.4c0,1.3-0.6,1.9-1.9,1.9h-337c-1.3,0-1.9-0.6-1.9-1.9v-222v-1.9h249.1l16.9-20.7H21.3h-1.9
	v0.6c-11,0.8-19.3,9.5-20.6,20.2v1.9v222c0,4.3,1.1,7.9,3,11.2c4.3,7.6,10.7,11.4,19.4,11.4h123v31h-23.4c-5.8,0-10.3,4.5-10.3,10.3
	c0,5.8,4.5,10.3,10.3,10.3h137.7c5.8,0,10.5-4.5,10.5-10.3c0-5.8-4.7-10.3-10.5-10.3h-23.4v-31h123c8.8,0,15.2-3.8,19.4-11.4
	c1.9-3.4,3.2-7.1,3.2-11.2V446.8L360.2,452.2z"/>
<path fill="#010101" d="M595.6,192v-0.5h-1.7H284.3h-1.7v0.5c-10.1,0.7-17.7,8.8-18.9,18.5v1.7v104.2l18.9,0.1V212.2v-1.7h313v1.7
	v204c0,1.2-0.5,1.7-1.7,1.7H391.1l-2.4,19h8.6v28.5h-21.5c-5.3,0-9.4,4.1-9.4,9.4c0,5.3,4.1,9.5,9.4,9.5h126.5
	c5.3,0,9.6-4.1,9.6-9.5c0-5.3-4.3-9.4-9.6-9.4h-21.5V437h113c8.1,0,14-3.5,17.9-10.5c1.8-3.2,2.9-6.5,2.9-10.3v-204v-1.7
	C613.5,200.7,605.4,192.7,595.6,192z"/>
</svg>
