<?xml version="1.0" encoding="utf-8"?>
<!-- Generator: Adobe Illustrator 15.1.0, SVG Export Plug-In . SVG Version: 6.00 Build 0)  -->
<!DOCTYPE svg PUBLIC "-//W3C//DTD SVG 1.1//EN" "http://www.w3.org/Graphics/SVG/1.1/DTD/svg11.dtd">
<svg version="1.1" id="Layer_1" xmlns="http://www.w3.org/2000/svg" xmlns:xlink="http://www.w3.org/1999/xlink" x="0px" y="0px"
	 width="800px" height="800px" viewBox="0 0 800 800" enable-background="new 0 0 800 800" xml:space="preserve">
<path fill="none" stroke="#000000" stroke-width="14" stroke-miterlimit="10" d="M400,0C179.1,0,0,179.1,0,400s179.1,400,400,400
	s400-179.1,400-400S620.9,0,400,0z M719.1,301h-96.1c-4.6-35.4-11.8-66.9-21.7-94.2c19.5-4.3,39.3-9.3,59.5-15
	C686.5,223.9,706.5,260.8,719.1,301z M614.1,144c-12.7,3.2-25.3,6.2-37.7,8.7c-13-23-27.4-42.2-42.2-58.3
	C563.3,107.2,590.1,123.9,614.1,144z M429.1,85.8c23.6,12.3,56.8,35.7,85.2,77.8c-29.4,4.2-57.9,7-85.2,8.6V85.8z M429.1,230.8
	c36-2.1,74-6.1,113.7-12.6c9.4,23.7,17,51,21.6,82.8H429.1V230.8z M370.9,82.2V174c-35.2,0.1-67.6-1.5-96.5-4.1
	C306.4,119.1,346,93.8,370.9,82.2z M370.9,232.7V301H228.7c4.1-28.2,10.4-53.1,18.3-74.8c34.5,3.8,74.4,6.6,118.9,6.6
	C367.5,232.7,369.2,232.7,370.9,232.7z M253.2,100.4c-14.8,17.1-29.1,37.6-41.7,61.9c-14.7-2.3-27.3-4.6-38.3-6.8
	C196.9,133.5,223.8,114.9,253.2,100.4z M129,205.4c13.1,3.4,33.1,7.9,59.4,12.5c-8.1,24.6-14.3,52.2-18.2,83.1H80.9
	C91.7,266.4,108.3,234.3,129,205.4z M307.5,720.4c5.8-19,13.1-34.9,22-47.1c-0.7,13.3-1.5,31.4-2.5,52.2
	C320.4,724,313.9,722.3,307.5,720.4z M473.3,725.7c1.2-0.3,0.6-38.5-0.5-52.3c9,12.2,16.2,27.9,21.8,46.5
	C504.1,717.1,490.3,721.8,473.3,725.7z M549.7,697.9c-12.3-38.9-30.9-68.8-56.4-88.7c-12.2-9.5-24.8-17.7-39.5-22.9
	c-13.6-4.8-28-7.4-42.3-8.4l14.4,153.3c-4.4,0.4-50.3,1.6-52.1,1.4c0.4,0,0.8,0,1.2,0.1l18.3-155.1c-15.6,0.5-31.4,3.1-46.2,8.4
	c-6,2.2-11.9,4.8-17.5,8.1c-9.7,5.8-18.7,12.7-27.1,20.3c-22.3,20-39,48.2-50.6,84.5C141.9,644.2,66,531,66,400
	c0-13.8,1.1-27.4,2.8-40.8h662.5c1.6,13.4,2.8,26.9,2.8,40.8C734,530.3,658.8,643,549.7,697.9z M484.9,484.5
	c0,46.8-37.5,84.8-83.8,84.8c-46.3,0-83.8-37.9-83.8-84.8c0-46.8,37.5-84.8,83.8-84.8C447.4,399.8,484.9,437.7,484.9,484.5z"/>
</svg>
